<svg width="7" height="11" viewBox="0 0 7 11" fill="none" xmlns="http://www.w3.org/2000/svg">
<path d="M6.48415 4.71858C6.4289 4.66294 6.36774 4.61599 6.30421 4.57514L2.0407 0.311836C1.62459 -0.10388 0.95021 -0.104077 0.533902 0.312034C0.117792 0.727947 0.117792 1.40252 0.533902 1.81883L4.2059 5.49043L0.515356 9.18137C0.099048 9.59708 0.099048 10.2719 0.515356 10.6882C0.72351 10.8959 0.995984 10.9999 1.26846 10.9999C1.54093 10.9999 1.814 10.8959 2.02156 10.6878L6.30421 6.40572C6.36774 6.36487 6.42871 6.31811 6.48415 6.26228C6.69723 6.04919 6.79944 5.76942 6.7947 5.49043C6.79963 5.21125 6.69723 4.93108 6.48415 4.71858Z" fill="#15BEF0"/>
</svg>
